<svg xmlns="http://www.w3.org/2000/svg" viewBox="0 0 256 256"><path d="M116.9 127.8c3.4-.5 6.7-1 10-1.4 9.2-1.3 18.1-3.3 26.6-6.2 8.3-2.9 15.9-6.8 23.1-11.7.4-.4.9-.5 1.4-.5.6 0 1.1.4 1.8 1 .3.4.4.6.4 1v.4c0 .4-.3.9-.9 1.4-7.2 5-15.1 9-23.6 12.1-8.5 2.9-17.3 4.9-26.5 6.2-5.8.9-11.6 1.6-17.5 2.4-.4 0-.6 0-1 .1-.6.1-.9.6-1.3 1.1-4.3 8.7-8.7 17.2-13.2 25.6-6.9 13.4-14.6 26.2-23.2 38.4-5.7 8.2-12.3 15.6-20 22-6.5 5.3-14.3 7.9-23.4 8h-.5c-8.2 0-15.1-3.4-21-10.3-3.1-4.1-5-8.5-5.9-13.2l-.3-2.5c.1-1.1.1-2.1.1-3.1 0-7.9 2-14.9 6-21.3 4.9-7.8 11.3-14.2 19-19.3 13.6-9.4 28.5-16.7 45-21.7 9.4-2.9 19.2-4.9 29.3-6.3.9-.1 1-.6 1.4-1.1l5.4-11.1c5.3-10.9 10.7-21.9 16.1-32.7 9.2-18.8 19.3-37 30.5-54.8 4.1-6.7 8.7-12.8 13.8-18.6.1-.1.3-.3.3-.6l-2.3.8c-1.6.5-3.3 1-4.9 1.4-8.4 2.4-17 4.5-25.6 6.5l-13.7 3.4c-15.7 3.6-30.8 8.4-45.5 14.1-9.2 3.6-17.6 8.3-25.1 14.2-3.5 2.9-6.5 6.3-9 10.2-2.8 4.6-4.1 9.5-4.1 14.7 0 1.8.1 3.5.5 5.4.5 2.8 1.4 5.5 2.5 8.4l.3.8v.4c0 .6-.5 1.1-1.4 1.3-.3.1-.5.1-.8.1-.9 0-1.5-.5-1.9-1.6-1.3-3.1-2.1-6.3-2.6-9.3-.4-2.1-.6-4.3-.6-6.4 0-7.3 2.4-13.9 7.3-19.8 5.1-6 11.2-10.9 18.3-14.8C72 34.2 84.7 29.2 98.1 25.4c12.2-3.5 24.4-6.7 36.7-9.5l4.4-1.1 2.1-.5c8.9-2 17.7-4.4 26.2-7.2 3.6-1.1 7-2.6 10.2-4.5.4-.1.6-.3 1-.3.3 0 .5 0 .9.1.6.1 1.3.5 1.6 1.1l.5 1V5c0 .5-.3 1-.9 1.5-5.8 4.1-10.5 9.3-14.4 15.2-8.7 12.7-16.2 26-22.7 40.1C138.8 72 134 82 129.4 92.2l-10.2 21.6-4.3 8.9-2.1 4.4-.4.8c-.1.1-.1.4-.3.6 1.7-.3 3.2-.6 4.8-.7zm-17.5 6.5h-.8l-2.6.5c-2.5.4-5 .9-7.5 1.4C65 141.1 44.2 150.3 26 164c-6.9 5-12.3 11.4-16.2 19.1-2.5 4.6-3.8 9.8-3.8 15.3 0 2.1.1 4.4.5 6.5 1 5.7 3.9 10.5 8.7 14.4 3.8 2.8 7.8 4.3 12.2 4.4.9.1 1.8.1 2.6.1 4.4 0 8.3-1 11.9-3 3.8-2.5 7.2-5.4 10.3-8.7 7.2-7.5 13.3-15.7 18.7-24.6C79.6 173.4 87.6 159 95 144l3.1-6.7c.6-1 1.1-2.1 1.6-3.3 0 .3-.2.3-.3.3z"/><path d="M163.4 133.2c0-5.3 1.4-10.2 4.3-14.7 3.6-6.4 8.9-11.1 15.8-13.9 1.9-.8 3.8-1.1 5.8-1.1.9 0 1.9.1 2.9.3 2.9.6 4.5 2 4.9 4.4.1.5.1 1 .1 1.5-.6 4.1-2.4 7.5-5.5 10-.1.1-.4.3-.5.3-.3 0-.5-.1-.6-.5l-.5-.8c-.4-.5-.8-1-1-1.6l-.1-.3v-.3c0-.1 0-.3.1-.4l.6-.5.6-.5c1.3-1.6 2.1-3.5 2.8-5.5.1-.1.1-.1.1-.3.1-.5.1-.9.1-1l-.4-.5c-.1-.1-.3-.1-.4-.1h-.1l-.5.3-.4.3c-7.4 3.4-13.1 8.4-17 15.2-2.8 4.1-4.4 8.7-5 13.8l-.1.8c0 .6 0 1.3.1 1.8.6 3.4 2.9 5 6.9 5 3.9-.3 7.7-.9 11.3-1.9 10.9-3.1 21.2-7.3 30.9-12.4 11.2-5.7 22.1-11.7 32.5-18.2l.4-.3.4-.4h.3c.3 0 .5.1.6.3 1 .8 1.6 1.6 1.9 2.8v.3c0 .1-.1.4-.5.5-.1 0-.1 0-.3.1-6.4 3.9-12.9 7.8-19.6 11.6-10.9 6.2-22.5 11.6-34.4 16.2-6.7 2.6-13.6 4.4-21 5.3-.6.1-1.4.1-2 .1-1.5 0-3-.3-4.6-.6-4.8-1.4-7.7-4.9-8.7-10.8-.1-1.7-.2-3.1-.2-4.3z"/></svg>