<?xml version="1.0" encoding="utf-8"?>
<!-- Generator: Adobe Illustrator 27.3.1, SVG Export Plug-In . SVG Version: 6.00 Build 0)  -->
<svg version="1.1" id="图层_1" xmlns="http://www.w3.org/2000/svg" xmlns:xlink="http://www.w3.org/1999/xlink" x="0px" y="0px"
	 viewBox="0 0 256 256" style="enable-background:new 0 0 256 256;" xml:space="preserve">
<g>
	<path d="M120.5,143.4c2.5-0.4,4.8-0.7,7.3-1c6.6-0.9,13.1-2.4,19.3-4.5c6-2.1,11.6-4.9,16.8-8.5c0.3-0.3,0.6-0.4,1-0.4
		c0.5,0,0.8,0.3,1.3,0.7c0.2,0.3,0.3,0.5,0.3,0.7v0.3c0,0.3-0.2,0.6-0.6,1c-5.2,3.6-10.9,6.6-17.1,8.7c-6.2,2.1-12.6,3.6-19.2,4.5
		c-4.2,0.6-8.4,1.2-12.7,1.7c-0.3,0-0.5,0-0.7,0.1c-0.5,0.1-0.6,0.5-0.9,0.8c-3.1,6.3-6.3,12.5-9.6,18.6c-5,9.7-10.6,19-16.8,27.9
		c-4.1,5.9-8.9,11.3-14.5,15.9c-4.7,3.8-10.4,5.7-16.9,5.8h-0.4c-5.9,0-10.9-2.5-15.2-7.5c-2.3-3-3.6-6.2-4.3-9.6l-0.2-1.8
		c-0.1-0.8-0.1-1.5-0.1-2.3c0-5.7,1.5-10.8,4.4-15.5c3.6-5.6,8.2-10.3,13.8-14c9.8-6.8,20.7-12.1,32.6-15.8
		c6.8-2.1,13.9-3.6,21.2-4.6c0.6-0.1,0.7-0.5,1-0.8l3.9-8c3.8-7.9,7.7-15.8,11.7-23.7c6.6-13.7,14-26.9,22.1-39.7
		c3-4.8,6.3-9.3,10-13.5c0.1-0.1,0.2-0.2,0.2-0.5l-1.6,0.5c-1.2,0.4-2.4,0.7-3.6,1c-6.1,1.7-12.3,3.3-18.6,4.7l-9.9,2.5
		c-11.4,2.6-22.3,6.1-33,10.2c-6.6,2.6-12.7,6-18.2,10.3c-2.5,2.1-4.7,4.6-6.6,7.4c-2,3.4-3,6.9-3,10.7c0,1.3,0.1,2.5,0.4,3.9
		c0.4,2,1,4,1.8,6.1l0.2,0.5v0.3c0,0.5-0.4,0.8-1,0.9c-0.2,0.1-0.4,0.1-0.5,0.1c-0.6,0-1.1-0.4-1.4-1.2c-0.9-2.3-1.5-4.6-1.9-6.7
		c-0.3-1.5-0.5-3.1-0.5-4.6c0-5.3,1.7-10.1,5.3-14.4c3.7-4.4,8.1-7.9,13.3-10.7c8.7-4.6,17.8-8.3,27.6-11c8.8-2.5,17.7-4.8,26.6-6.9
		l3.2-0.8l1.5-0.4c6.5-1.5,12.8-3.2,19-5.2c2.6-0.8,5.1-1.9,7.4-3.3c0.3-0.1,0.5-0.2,0.7-0.2c0.2,0,0.4,0,0.6,0.1
		c0.5,0.1,0.9,0.4,1.2,0.8l0.4,0.7v0.3c0,0.4-0.2,0.7-0.6,1.1c-4.2,3-7.6,6.7-10.5,11c-6.3,9.2-11.7,18.9-16.5,29
		c-3.6,7.4-7,14.7-10.4,22l-7.4,15.7l-3.1,6.5l-1.5,3.2l-0.3,0.5c-0.1,0.1-0.1,0.3-0.2,0.5C118.2,143.7,119.3,143.5,120.5,143.4z
		 M107.7,148.2h-0.5l-1.9,0.4c-1.8,0.3-3.6,0.6-5.5,1c-17,3.6-32.1,10.2-45.3,20.1c-5,3.6-8.9,8.3-11.7,13.8
		c-1.8,3.4-2.7,7.1-2.7,11.1c0,1.5,0.1,3.2,0.4,4.7c0.7,4.1,2.8,7.6,6.3,10.5c2.7,2,5.6,3.1,8.8,3.2c0.6,0.1,1.3,0.1,1.9,0.1
		c3.2,0,6-0.7,8.7-2.2c2.7-1.8,5.2-3.9,7.5-6.3c5.2-5.5,9.7-11.4,13.6-17.8c6.3-10.2,12.1-20.7,17.5-31.5l2.3-4.8
		c0.5-0.7,0.8-1.5,1.2-2.4C108,148.2,107.8,148.2,107.7,148.2z"/>
	<path d="M154.2,147.4c0-3.8,1-7.4,3.1-10.7c2.6-4.6,6.5-8,11.5-10.1c1.4-0.5,2.7-0.8,4.2-0.8c0.6,0,1.4,0.1,2.1,0.2
		c2.1,0.5,3.3,1.5,3.6,3.2c0.1,0.4,0.1,0.7,0.1,1.1c-0.5,3-1.7,5.5-4,7.3c-0.1,0.1-0.3,0.2-0.4,0.2c-0.2,0-0.4-0.1-0.5-0.4l-0.4-0.5
		c-0.3-0.4-0.5-0.7-0.7-1.2l-0.1-0.2v-0.2c0-0.1,0-0.2,0.1-0.3l0.5-0.4l0.5-0.4c0.9-1.2,1.5-2.5,2-4c0.1-0.1,0.1-0.1,0.1-0.2
		c0.1-0.4,0.1-0.6,0.1-0.7l-0.3-0.4c-0.1-0.1-0.2-0.1-0.3-0.1h-0.1l-0.4,0.2l-0.3,0.2c-5.4,2.5-9.5,6.1-12.3,11c-2,3-3.2,6.3-3.6,10
		l-0.1,0.5c0,0.5,0,0.9,0.1,1.3c0.5,2.5,2.1,3.6,5,3.6c2.8-0.2,5.6-0.6,8.2-1.4c7.9-2.3,15.4-5.3,22.4-9c8.1-4.1,16-8.5,23.6-13.2
		l0.3-0.2l0.3-0.3h0.2c0.2,0,0.4,0.1,0.5,0.2c0.7,0.5,1.2,1.2,1.4,2v0.2c0,0.1-0.1,0.3-0.4,0.4c-0.1,0-0.1,0-0.2,0.1
		c-4.6,2.8-9.4,5.6-14.2,8.4c-7.9,4.5-16.3,8.4-25,11.7c-4.8,1.9-9.8,3.2-15.2,3.8c-0.5,0.1-1,0.1-1.5,0.1c-1.1,0-2.2-0.2-3.4-0.5
		c-3.5-1-5.6-3.6-6.3-7.8C154.3,149.3,154.2,148.3,154.2,147.4z"/>
</g>
<g>
</g>
<g>
</g>
<g>
</g>
<g>
</g>
<g>
</g>
<g>
</g>
<g>
</g>
<g>
</g>
<g>
</g>
<g>
</g>
<g>
</g>
<g>
</g>
<g>
</g>
<g>
</g>
<g>
</g>
</svg>
