<?xml version="1.0" encoding="utf-8"?>
<!-- Generator: Adobe Illustrator 27.3.1, SVG Export Plug-In . SVG Version: 6.00 Build 0)  -->
<svg version="1.1" id="图层_1" xmlns="http://www.w3.org/2000/svg" xmlns:xlink="http://www.w3.org/1999/xlink" x="0px" y="0px"
	 viewBox="0 0 256 256" style="enable-background:new 0 0 256 256;" xml:space="preserve">
<style type="text/css">
	.st0{stroke:#000000;stroke-width:7;stroke-miterlimit:10;}
</style>
<g>
	<path class="st0" d="M117.7,127.2c3.3-0.5,6.5-1,9.8-1.3c8.9-1.2,17.6-3.2,25.8-6c8-2.8,15.5-6.6,22.4-11.3
		c0.4-0.4,0.9-0.5,1.3-0.5c0.6,0,1.1,0.4,1.7,1c0.2,0.4,0.4,0.6,0.4,1v0.4c0,0.4-0.2,0.9-0.9,1.3c-6.9,4.9-14.6,8.8-22.9,11.7
		c-8.3,2.8-16.8,4.8-25.7,6c-5.6,0.9-11.2,1.6-16.9,2.3c-0.4,0-0.6,0-1,0.1c-0.6,0.1-0.9,0.6-1.2,1.1c-4.1,8.4-8.4,16.7-12.8,24.9
		c-6.7,13-14.1,25.5-22.5,37.3c-5.5,7.9-11.9,15.1-19.4,21.3c-6.3,5.1-13.9,7.7-22.7,7.8h-0.5c-7.9,0-14.6-3.3-20.4-10
		c-3-4-4.9-8.3-5.7-12.8L6.3,199c-0.1-1.1-0.1-2.1-0.1-3c0-7.7,2-14.5,5.9-20.7c4.8-7.6,11-13.8,18.4-18.8
		c13.2-9.1,27.7-16.2,43.6-21.1c9.1-2.8,18.6-4.8,28.4-6.1c0.9-0.1,1-0.6,1.3-1.1l5.2-10.7c5.1-10.6,10.4-21.2,15.6-31.7
		c8.9-18.3,18.8-36,29.6-53.1c4-6.5,8.4-12.4,13.4-18c0.1-0.1,0.2-0.2,0.2-0.6l-2.2,0.7c-1.6,0.5-3.2,1-4.8,1.3
		c-8.2,2.3-16.5,4.4-24.9,6.3l-13.3,3.3c-15.2,3.5-29.9,8.2-44.1,13.7c-8.9,3.5-17.1,8-24.4,13.8c-3.4,2.8-6.3,6.1-8.8,9.9
		c-2.7,4.5-4,9.3-4,14.3c0,1.7,0.1,3.4,0.5,5.2c0.5,2.7,1.3,5.4,2.4,8.2l0.2,0.7v0.4c0,0.6-0.5,1.1-1.3,1.2C43.1,93,42.8,93,42.6,93
		c-0.9,0-1.5-0.5-1.8-1.6c-1.2-3-2.1-6.1-2.6-9c-0.4-2.1-0.6-4.1-0.6-6.2c0-7.1,2.3-13.5,7.1-19.3c5-5.9,10.8-10.6,17.8-14.4
		C74,36.4,86.3,31.5,99.4,27.8c11.8-3.4,23.6-6.5,35.6-9.3l4.3-1.1l2.1-0.5c8.7-2,17.2-4.3,25.5-6.9c3.5-1.1,6.8-2.6,9.9-4.4
		c0.4-0.1,0.6-0.2,1-0.2c0.2,0,0.5,0,0.9,0.1c0.6,0.1,1.2,0.5,1.6,1.1l0.5,1V8c0,0.5-0.2,1-0.9,1.5c-5.6,4-10.2,9-14,14.7
		C157.3,36.5,150,49.4,143.6,63c-4.8,9.9-9.4,19.6-13.9,29.5l-9.9,21l-4.1,8.7l-2.1,4.3l-0.4,0.7c-0.1,0.1-0.1,0.4-0.2,0.6
		C114.6,127.5,116.1,127.3,117.7,127.2z M100.6,133.5h-0.7l-2.6,0.5c-2.4,0.4-4.9,0.9-7.3,1.3c-22.8,4.8-42.9,13.7-60.6,26.9
		c-6.7,4.9-11.9,11.1-15.7,18.5c-2.4,4.5-3.7,9.5-3.7,14.9c0,2.1,0.1,4.3,0.5,6.3c1,5.5,3.8,10.2,8.4,14c3.7,2.7,7.6,4.1,11.8,4.3
		c0.9,0.1,1.7,0.1,2.6,0.1c4.3,0,8-1,11.6-2.9c3.7-2.4,6.9-5.2,10-8.4c6.9-7.3,12.9-15.2,18.2-23.9c8.4-13.7,16.2-27.7,23.4-42.2
		l3-6.5c0.6-1,1.1-2.1,1.6-3.2C101,133.5,100.7,133.5,100.6,133.5z"/>
	<path class="st0" d="M162.8,132.4c0-5.1,1.3-9.9,4.1-14.3c3.5-6.2,8.7-10.7,15.4-13.5c1.8-0.7,3.7-1.1,5.6-1.1
		c0.9,0,1.8,0.1,2.8,0.2c2.8,0.6,4.4,2,4.8,4.3c0.1,0.5,0.1,1,0.1,1.5c-0.6,4-2.3,7.3-5.4,9.8c-0.1,0.1-0.4,0.2-0.5,0.2
		c-0.2,0-0.5-0.1-0.6-0.5l-0.5-0.7c-0.4-0.5-0.7-1-1-1.6l-0.1-0.2v-0.2c0-0.1,0-0.2,0.1-0.4l0.6-0.5l0.6-0.5
		c1.2-1.6,2.1-3.4,2.7-5.4c0.1-0.1,0.1-0.1,0.1-0.2c0.1-0.5,0.1-0.9,0.1-1l-0.4-0.5c-0.1-0.1-0.2-0.1-0.4-0.1h-0.1l-0.5,0.2
		l-0.4,0.2c-7.2,3.3-12.7,8.2-16.5,14.7c-2.7,4-4.3,8.4-4.9,13.4l-0.1,0.7c0,0.6,0,1.2,0.1,1.7c0.6,3.3,2.8,4.9,6.7,4.9
		c3.8-0.2,7.4-0.9,11-1.8c10.6-3,20.6-7.1,30-12.1c10.8-5.5,21.5-11.3,31.6-17.7l0.4-0.2l0.4-0.4h0.2c0.2,0,0.5,0.1,0.6,0.2
		c1,0.7,1.6,1.6,1.8,2.7v0.2c0,0.1-0.1,0.4-0.5,0.5c-0.1,0-0.1,0-0.2,0.1c-6.2,3.8-12.6,7.6-19,11.2c-10.6,6-21.8,11.2-33.4,15.7
		c-6.5,2.6-13.2,4.3-20.4,5.1c-0.6,0.1-1.3,0.1-2,0.1c-1.5,0-2.9-0.2-4.5-0.6c-4.6-1.3-7.4-4.8-8.4-10.5
		C162.9,135,162.8,133.6,162.8,132.4z"/>
</g>
<g>
</g>
<g>
</g>
<g>
</g>
<g>
</g>
<g>
</g>
<g>
</g>
<g>
</g>
<g>
</g>
<g>
</g>
<g>
</g>
<g>
</g>
<g>
</g>
<g>
</g>
<g>
</g>
<g>
</g>
</svg>
