<?xml version="1.0" encoding="utf-8"?>
<!-- Generator: Adobe Illustrator 27.3.1, SVG Export Plug-In . SVG Version: 6.00 Build 0)  -->
<svg version="1.1" id="layer_1" xmlns="http://www.w3.org/2000/svg" xmlns:xlink="http://www.w3.org/1999/xlink" x="0px" y="0px"
	 viewBox="0 0 300 300" style="enable-background:new 0 0 300 300;" xml:space="preserve">
<style type="text/css">
	.st0{fill:#fff;stroke:#fff;stroke-miterlimit:10;}
	.st1{fill:#333;stroke:#333;stroke-width:7;stroke-miterlimit:10}
  @media (prefers-color-scheme:dark){
    .st0{
      fill:#333;
      stroke:#fff;
      stroke-width:6;
    }
    .st1{
      fill:#fff;
      stroke:#fff;
      stroke-width:6;
    }
  }
</style>
<rect x="-6.5" y="-6.5" class="st0" width="313" height="313"/>
<g>
	<path class="st1" d="M141.5,159.6c2.6-0.4,5-0.8,7.6-1c6.9-0.9,13.6-2.5,20-4.7c6.2-2.2,12-5.1,17.4-8.8c0.3-0.3,0.7-0.4,1-0.4
		c0.5,0,0.9,0.3,1.3,0.8c0.2,0.3,0.3,0.5,0.3,0.8v0.3c0,0.3-0.2,0.7-0.7,1c-5.3,3.8-11.3,6.8-17.7,9.1c-6.4,2.2-13,3.7-19.9,4.7
		c-4.3,0.7-8.7,1.2-13.1,1.8c-0.3,0-0.5,0-0.8,0.1c-0.5,0.1-0.7,0.5-0.9,0.9c-3.2,6.5-6.5,12.9-9.9,19.3
		c-5.2,10.1-10.9,19.8-17.4,28.9c-4.3,6.1-9.2,11.7-15,16.5c-4.9,4-10.8,6-17.6,6h-0.4c-6.1,0-11.3-2.6-15.8-7.8
		c-2.3-3.1-3.8-6.4-4.4-9.9l-0.2-1.9c-0.1-0.9-0.1-1.6-0.1-2.3c0-6,1.6-11.2,4.6-16c3.7-5.9,8.5-10.7,14.3-14.6
		c10.2-7.1,21.5-12.6,33.8-16.4c7.1-2.2,14.4-3.7,22-4.7c0.7-0.1,0.8-0.5,1-0.9l4-8.3c4-8.2,8.1-16.4,12.1-24.6
		c6.9-14.2,14.6-27.9,22.9-41.2c3.1-5,6.5-9.6,10.4-14c0.1-0.1,0.2-0.2,0.2-0.5l-1.7,0.5c-1.2,0.4-2.5,0.8-3.7,1
		c-6.4,1.8-12.8,3.4-19.3,4.9l-10.3,2.6c-11.8,2.7-23.2,6.4-34.2,10.6c-6.9,2.7-13.3,6.2-18.9,10.7c-2.6,2.2-4.9,4.7-6.8,7.7
		c-2.1,3.5-3.1,7.2-3.1,11.1c0,1.3,0.1,2.6,0.4,4c0.4,2.1,1,4.2,1.9,6.4l0.2,0.5v0.3c0,0.5-0.4,0.9-1,0.9c0-0.1-0.2-0.1-0.4-0.1
		c-0.7,0-1.2-0.4-1.4-1.2c-0.9-2.3-1.6-4.7-2-7c-0.3-1.6-0.5-3.2-0.5-4.8c0-5.5,1.8-10.5,5.5-15c3.9-4.6,8.4-8.2,13.8-11.2
		c8.9-4.7,18.4-8.5,28.6-11.4c9.1-2.6,18.3-5,27.6-7.2l3.3-0.9l1.6-0.4c6.7-1.6,13.3-3.3,19.8-5.3c2.7-0.9,5.3-2,7.7-3.4
		c0.3-0.1,0.5-0.2,0.8-0.2c0.2,0,0.4,0,0.7,0.1c0.5,0.1,0.9,0.4,1.2,0.9l0.4,0.8v0.3c0,0.4-0.2,0.8-0.7,1.2
		c-4.3,3.1-7.9,7-10.9,11.4c-6.7,9.5-12.3,19.5-17.3,30.1c-3.7,7.7-7.3,15.2-10.8,22.9l-7.7,16.3l-3.2,6.7l-1.6,3.3l-0.3,0.5
		c-0.1,0.1-0.1,0.3-0.2,0.5C139.1,159.8,140.2,159.6,141.5,159.6L141.5,159.6z M128.2,164.5h-0.5l-2,0.4c-1.9,0.3-3.8,0.7-5.7,1
		c-17.7,3.7-33.2,10.6-47,20.8c-5.2,3.8-9.2,8.6-12.2,14.3c-1.9,3.5-2.9,7.4-2.9,11.5c0,1.6,0.1,3.3,0.4,4.9
		c0.8,4.3,2.9,7.9,6.5,10.9c2.9,2.1,5.9,3.2,9.1,3.3c0.7,0.1,1.3,0.1,2,0.1c3.3,0,6.2-0.8,9-2.2c2.9-1.9,5.3-4,7.8-6.5
		c5.3-5.7,10-11.8,14.1-18.5c6.5-10.6,12.6-21.5,18.1-32.7l2.3-5c0.5-0.8,0.9-1.6,1.2-2.5C128.5,164.5,128.3,164.5,128.2,164.5
		L128.2,164.5z"/>
	<path class="st1" d="M176.4,163.6c0-4,1-7.7,3.2-11.1c2.7-4.8,6.7-8.3,11.9-10.5c1.4-0.5,2.9-0.9,4.3-0.9c0.7,0,1.4,0.1,2.2,0.2
		c2.2,0.5,3.4,1.6,3.7,3.3c0.1,0.4,0.1,0.8,0.1,1.2c-0.5,3.1-1.8,5.7-4.2,7.6c-0.1,0.1-0.3,0.2-0.4,0.2c-0.2,0-0.4-0.1-0.5-0.4
		l-0.4-0.5c-0.3-0.4-0.5-0.8-0.8-1.2l-0.1-0.2v-0.2c0-0.1,0-0.2,0.1-0.3l0.5-0.4l0.5-0.4c0.9-1.2,1.6-2.6,2.1-4.2
		c0.1-0.1,0.1-0.1,0.1-0.2c0.1-0.4,0.1-0.7,0.1-0.8l-0.3-0.4c-0.1-0.1-0.2-0.1-0.3-0.1h-0.1l-0.4,0.2l-0.3,0.2
		c-5.6,2.6-9.8,6.4-12.8,11.4c-2.1,3.1-3.3,6.5-3.8,10.4l-0.1,0.5c0,0.5,0,0.9,0.1,1.3c0.5,2.6,2.2,3.8,5.2,3.8
		c2.9-0.2,5.7-0.7,8.5-1.4c8.2-2.3,16-5.5,23.3-9.4c8.4-4.3,16.7-8.8,24.5-13.7l0.3-0.2l0.3-0.3h0.2c0.2,0,0.4,0.1,0.5,0.2
		c0.8,0.5,1.2,1.2,1.4,2.1v0.2c0,0.1-0.1,0.3-0.4,0.4c-0.1,0-0.1,0-0.2,0.1c-4.8,2.9-9.8,5.9-14.7,8.7c-8.2,4.7-16.9,8.7-25.9,12.2
		c-5,2-10.2,3.3-15.8,4c-0.5,0.1-1,0.1-1.6,0.1c-1.2,0-2.2-0.2-3.5-0.5c-3.6-1-5.7-3.7-6.5-8.1C176.5,165.6,176.4,164.5,176.4,163.6
		L176.4,163.6z"/>
</g>
</svg>
